<svg width="50" height="50" viewBox="0 0 50 50" fill="none" xmlns="http://www.w3.org/2000/svg">
<path d="M24.992 8.98401C23.452 8.98401 22.434 10.066 21.856 11.038C21.268 12.024 20.956 13.178 20.914 13.922C20.832 15.402 21.054 16.698 21.792 17.634C22.56 18.61 23.712 18.984 24.992 18.984C26.29 18.984 27.438 18.566 28.202 17.59C28.94 16.646 29.178 15.36 29.082 13.912C29.036 13.208 28.72 12.06 28.134 11.07C27.56 10.1 26.542 8.98401 24.994 8.98401H24.992ZM22.912 14.032C22.932 13.626 23.144 12.784 23.574 12.06C24.014 11.324 24.504 10.984 24.994 10.984C25.472 10.984 25.964 11.328 26.414 12.086C26.848 12.826 27.064 13.672 27.088 14.042C27.166 15.242 26.94 15.958 26.628 16.358C26.342 16.722 25.858 16.984 24.992 16.984C24.092 16.984 23.628 16.734 23.364 16.396C23.064 16.016 22.84 15.308 22.91 14.032H22.912ZM15 21C13.9391 21 12.9217 21.4214 12.1716 22.1716C11.4214 22.9217 11 23.9391 11 25V37H10C9.73478 37 9.48043 37.1054 9.29289 37.2929C9.10536 37.4804 9 37.7348 9 38C9 38.2652 9.10536 38.5196 9.29289 38.7071C9.48043 38.8947 9.73478 39 10 39H40C40.2652 39 40.5196 38.8947 40.7071 38.7071C40.8946 38.5196 41 38.2652 41 38C41 37.7348 40.8946 37.4804 40.7071 37.2929C40.5196 37.1054 40.2652 37 40 37H39V25C39 23.9391 38.5786 22.9217 37.8284 22.1716C37.0783 21.4214 36.0609 21 35 21H15ZM37 37H13V29.236L16.09 31.996C16.4823 32.3468 16.94 32.6168 17.4368 32.7905C17.9336 32.9641 18.4598 33.038 18.9852 33.0079C19.5107 32.9778 20.025 32.8443 20.4987 32.615C20.9725 32.3858 21.3963 32.0653 21.746 31.672L23.506 29.692C23.6936 29.4809 23.9239 29.3118 24.1816 29.1961C24.4392 29.0804 24.7185 29.0205 25.001 29.0205C25.2835 29.0205 25.5628 29.0804 25.8204 29.1961C26.0781 29.3118 26.3084 29.4809 26.496 29.692L28.254 31.672C28.6036 32.0658 29.0274 32.3867 29.5013 32.6163C29.9751 32.8458 30.4896 32.9796 31.0153 33.0099C31.541 33.0402 32.0675 32.9664 32.5645 32.7928C33.0616 32.6191 33.5195 32.349 33.912 31.998L37 29.236V37ZM37 26.552L32.578 30.506C32.3819 30.6814 32.153 30.8164 31.9046 30.9032C31.6562 30.99 31.3931 31.027 31.1304 31.0119C30.8677 30.9969 30.6105 30.9301 30.3736 30.8155C30.1368 30.7009 29.9248 30.5407 29.75 30.344L27.99 28.364C27.6147 27.9417 27.1542 27.6037 26.6389 27.3722C26.1235 27.1407 25.565 27.0211 25 27.0211C24.435 27.0211 23.8765 27.1407 23.3611 27.3722C22.8458 27.6037 22.3853 27.9417 22.01 28.364L20.25 30.344C20.0752 30.5407 19.8632 30.7009 19.6264 30.8155C19.3895 30.9301 19.1323 30.9969 18.8696 31.0119C18.6069 31.027 18.3438 30.99 18.0954 30.9032C17.847 30.8164 17.6181 30.6814 17.422 30.506L13 26.552V25C13 24.4696 13.2107 23.9609 13.5858 23.5858C13.9609 23.2107 14.4696 23 15 23H35C35.5304 23 36.0391 23.2107 36.4142 23.5858C36.7893 23.9609 37 24.4696 37 25V26.552Z" fill="#BF4980"/>
</svg>
