<svg width="50" height="50" viewBox="0 0 50 50" fill="none" xmlns="http://www.w3.org/2000/svg">
<g clip-path="url(#clip0_362_310)">
<mask id="path-1-inside-1_362_310" fill="white">
<path d="M22.8661 9.15139C22.7813 9.2301 22.7147 9.35119 22.7147 9.41174C22.7147 9.47834 22.8661 9.71447 23.0477 9.94455C24.071 11.2342 24.1073 12.2938 23.1507 13.2322C22.4786 13.8862 21.6854 14.1707 19.3241 14.6067C17.5622 14.9276 16.8417 15.1153 16.2544 15.3938C15.661 15.6783 15.1403 16.1627 14.8921 16.6774C14.6923 17.077 14.6923 17.0891 14.6983 17.9307C14.6983 18.7662 14.7589 19.075 15.0677 19.8742C15.0858 19.9166 14.9284 20.0377 14.6802 20.1649C13.5964 20.734 12.9425 21.5817 12.779 22.617C12.6276 23.616 13.0151 24.8815 13.9294 26.377L14.2866 26.9522L15.7821 32.583C16.6056 35.677 17.3382 38.3592 17.4169 38.5348C17.7136 39.1887 18.5249 39.7881 19.3181 39.9395C19.5239 39.9758 21.6612 40 25.1608 40C31.2337 40 31.0218 40.0121 31.7483 39.6246C32.154 39.4067 32.6263 38.9223 32.8079 38.5348C32.8806 38.3895 33.6253 35.7012 34.4669 32.5588L36.0048 26.8432L36.247 26.6737C37.3974 25.8623 38.0089 24.9662 38.2026 23.8098C38.2874 23.277 38.2874 23.1801 38.1966 22.6291C38.0815 21.9086 37.8696 21.3697 37.4821 20.7703C36.6345 19.4746 35.0118 18.4393 33.3589 18.1365L32.9472 18.0639V17.7309C32.9472 16.3565 31.7241 14.6854 29.6958 13.2988C29.4294 13.1172 29.3809 13.0506 29.3446 12.8387C29.169 11.652 27.7099 10.4592 25.4696 9.66604C24.8036 9.4299 23.2839 9.00002 23.1265 9.00002C23.0659 9.00002 22.9448 9.06662 22.8661 9.15139ZM24.9913 10.3987C26.8138 11.0223 28.0186 11.8094 28.394 12.6207C28.5151 12.8811 28.5333 13.0203 28.5151 13.3231C28.4788 13.9225 28.2487 14.316 27.5343 15.0244C26.7714 15.7813 26.0872 16.2414 24.6825 16.9317C22.8479 17.8338 21.9216 18.1365 18.6581 18.8692C18.0405 19.0084 17.211 19.2203 16.8114 19.3354C16.4118 19.4565 16.0304 19.5533 15.9698 19.5594C15.8184 19.5654 15.6126 19.0024 15.5097 18.2819C15.3341 17.0951 15.8366 16.3746 17.1323 15.9447C17.3987 15.8539 18.21 15.6723 18.9427 15.5391C22.1516 14.9518 22.969 14.6369 23.8712 13.6803C24.6946 12.7963 24.8884 11.6944 24.4161 10.5742C24.3192 10.3442 24.2466 10.1504 24.2587 10.1504C24.2647 10.1504 24.5977 10.2594 24.9913 10.3987ZM30.1136 14.6733C30.3376 14.8549 30.6948 15.1879 30.9067 15.4119C32.3841 16.9801 32.5052 18.3848 31.2821 19.7047C30.4587 20.5947 29.3083 21.2971 27.2558 22.175C25.5181 22.9137 24.6522 23.3617 23.5927 24.0641C23.1325 24.3729 22.636 24.6756 22.4907 24.7422C22.3515 24.8028 22.0972 24.9783 21.9337 25.1358L21.6309 25.4143L21.3827 25.166C21.2434 25.0268 20.977 24.8391 20.7833 24.7483C20.4927 24.6151 20.3655 24.5908 19.869 24.5908C19.1849 24.5908 18.8821 24.7059 18.428 25.1297L18.1313 25.4082L17.871 25.1539C17.7257 25.0207 17.4532 24.833 17.2716 24.7483C16.9809 24.6151 16.8538 24.5908 16.3573 24.5908C15.8972 24.5908 15.7276 24.6211 15.4975 24.724C15.1827 24.8694 14.6257 25.3537 14.5712 25.5354C14.5106 25.7231 14.4198 25.6141 14.111 24.9602C13.7417 24.1791 13.6145 23.6887 13.6085 23.0469C13.6024 22.5807 13.6206 22.4899 13.8022 22.1266C14.3593 20.9883 15.7216 20.3707 19.5058 19.5352C21.0436 19.1961 22.1335 18.8994 22.9569 18.5967C26.1054 17.4221 28.3517 15.8842 29.0843 14.4069L29.272 14.0254L29.4899 14.1889C29.611 14.2737 29.8895 14.4977 30.1136 14.6733ZM33.5224 19.0326C35.6294 19.5533 37.2399 21.1881 37.4034 22.9682C37.4882 23.8824 37.1431 24.7483 36.4225 25.4506C36.1743 25.6928 35.9503 25.8926 35.9261 25.8926C35.9018 25.8865 35.7868 25.7352 35.6718 25.5475C35.4175 25.1479 35.0542 24.8512 34.594 24.6756C34.3155 24.5727 34.1581 24.5545 33.7645 24.5727C33.1712 24.6029 32.82 24.7483 32.4143 25.1297L32.1237 25.4022L31.8936 25.1721C31.7665 25.0449 31.5122 24.8633 31.3245 24.7664C31.0157 24.609 30.9188 24.5908 30.4042 24.5908C29.8714 24.5908 29.7927 24.609 29.4233 24.7906C29.2054 24.8996 28.9329 25.0873 28.83 25.2024L28.6362 25.4264L28.388 25.1781C28.2487 25.0449 27.9823 24.8572 27.8007 24.7604C27.504 24.609 27.4011 24.5908 26.8925 24.5908C26.396 24.5908 26.2688 24.6151 25.9782 24.7483C25.7845 24.8391 25.5181 25.0268 25.3788 25.166L25.1306 25.4143L24.8339 25.1418C24.6704 24.9904 24.4645 24.833 24.3798 24.7906C24.295 24.7543 24.2284 24.6998 24.2284 24.6756C24.2284 24.5303 26.0206 23.5918 27.3466 23.0469C29.3931 22.2053 30.8159 21.3697 31.7059 20.4737C32.16 20.0196 32.6323 19.3475 32.7352 19.0084C32.7776 18.8571 32.8261 18.8631 33.5224 19.0326ZM16.9567 25.5233C17.2595 25.6807 17.5501 26.0197 17.6227 26.2983C17.653 26.4254 17.7681 27.043 17.871 27.6787C17.9739 28.3084 18.4099 30.7787 18.8397 33.1582C19.2696 35.5377 19.6874 37.8627 19.7661 38.3289L19.9175 39.1705L19.6268 39.1342C18.9306 39.0494 18.2888 38.559 18.095 37.9656C17.877 37.2936 15.0858 26.6918 15.0858 26.5404C15.0858 26.1832 15.4612 25.6625 15.8427 25.493C16.1212 25.3719 16.6843 25.3901 16.9567 25.5233ZM20.4684 25.5293C20.7772 25.6807 21.0497 26.0197 21.1345 26.3406C21.1647 26.4738 21.2253 26.9401 21.2616 27.376C21.2979 27.8059 21.528 30.4397 21.7763 33.2188C22.0245 35.9979 22.2425 38.4742 22.2667 38.7164L22.303 39.1584L21.528 39.1403L20.753 39.1221L20.6138 38.3047C20.535 37.8567 20.1597 35.7436 19.7722 33.6123C18.5975 27.1156 18.5431 26.7887 18.6036 26.4557C18.7186 25.826 19.2272 25.4082 19.8811 25.4082C20.1173 25.4082 20.3171 25.4506 20.4684 25.5293ZM24.1194 25.6262C24.2647 25.7231 24.4464 25.9289 24.5311 26.0742L24.6825 26.3467L24.7007 32.7526L24.7128 39.1524H23.9317H23.1507L23.1143 38.7406C22.6845 34.1572 22.0972 27.4123 22.0911 26.9522C22.079 26.4375 22.0972 26.3104 22.2122 26.1045C22.4847 25.5959 22.8479 25.3961 23.4534 25.4264C23.7925 25.4385 23.9015 25.4748 24.1194 25.6262ZM27.6251 25.6201C27.7643 25.7231 27.946 25.9229 28.0308 26.0742C28.17 26.3285 28.1761 26.3891 28.1397 27.043C28.1216 27.4244 27.9036 30.0158 27.6554 32.7949C27.4011 35.574 27.1831 38.0383 27.1649 38.2744C27.1468 38.5045 27.1165 38.8012 27.0983 38.9223L27.062 39.1524H26.3112H25.5604V32.8373C25.5604 28.9321 25.5847 26.4496 25.621 26.3164C25.6997 26.0379 25.9964 25.6807 26.2749 25.5293C26.4505 25.4324 26.5897 25.4082 26.9349 25.4264C27.3042 25.4385 27.4071 25.4688 27.6251 25.6201ZM31.0884 25.5899C31.3427 25.7654 31.597 26.1408 31.6515 26.4254C31.6999 26.6858 31.6575 26.934 30.6464 32.5528C30.1862 35.1018 29.7321 37.6266 29.6413 38.1654L29.4718 39.1524H28.6968H27.9157L27.952 38.8012C27.9702 38.6135 28.2003 36.0342 28.4667 33.0674C29.0419 26.6252 29.054 26.4738 29.1933 26.1651C29.3083 25.9047 29.5384 25.6625 29.829 25.5051C30.1136 25.3537 30.8038 25.3961 31.0884 25.5899ZM34.4487 25.5233C34.8423 25.7231 35.1874 26.2074 35.1874 26.5465C35.1874 26.601 34.4911 29.2408 33.6434 32.4014C32.5294 36.5488 32.0571 38.2139 31.9481 38.3713C31.8694 38.4985 31.7059 38.668 31.5909 38.7588C31.2034 39.0494 30.3436 39.2735 30.3436 39.0737C30.3436 38.9768 30.8159 36.3006 31.494 32.583C31.9542 30.0522 32.3901 27.6182 32.5899 26.4678C32.6989 25.8321 33.2075 25.4082 33.8675 25.4082C34.0975 25.4082 34.3034 25.4506 34.4487 25.5233Z"/>
</mask>
<path d="M22.8661 9.15139C22.7813 9.2301 22.7147 9.35119 22.7147 9.41174C22.7147 9.47834 22.8661 9.71447 23.0477 9.94455C24.071 11.2342 24.1073 12.2938 23.1507 13.2322C22.4786 13.8862 21.6854 14.1707 19.3241 14.6067C17.5622 14.9276 16.8417 15.1153 16.2544 15.3938C15.661 15.6783 15.1403 16.1627 14.8921 16.6774C14.6923 17.077 14.6923 17.0891 14.6983 17.9307C14.6983 18.7662 14.7589 19.075 15.0677 19.8742C15.0858 19.9166 14.9284 20.0377 14.6802 20.1649C13.5964 20.734 12.9425 21.5817 12.779 22.617C12.6276 23.616 13.0151 24.8815 13.9294 26.377L14.2866 26.9522L15.7821 32.583C16.6056 35.677 17.3382 38.3592 17.4169 38.5348C17.7136 39.1887 18.5249 39.7881 19.3181 39.9395C19.5239 39.9758 21.6612 40 25.1608 40C31.2337 40 31.0218 40.0121 31.7483 39.6246C32.154 39.4067 32.6263 38.9223 32.8079 38.5348C32.8806 38.3895 33.6253 35.7012 34.4669 32.5588L36.0048 26.8432L36.247 26.6737C37.3974 25.8623 38.0089 24.9662 38.2026 23.8098C38.2874 23.277 38.2874 23.1801 38.1966 22.6291C38.0815 21.9086 37.8696 21.3697 37.4821 20.7703C36.6345 19.4746 35.0118 18.4393 33.3589 18.1365L32.9472 18.0639V17.7309C32.9472 16.3565 31.7241 14.6854 29.6958 13.2988C29.4294 13.1172 29.3809 13.0506 29.3446 12.8387C29.169 11.652 27.7099 10.4592 25.4696 9.66604C24.8036 9.4299 23.2839 9.00002 23.1265 9.00002C23.0659 9.00002 22.9448 9.06662 22.8661 9.15139ZM24.9913 10.3987C26.8138 11.0223 28.0186 11.8094 28.394 12.6207C28.5151 12.8811 28.5333 13.0203 28.5151 13.3231C28.4788 13.9225 28.2487 14.316 27.5343 15.0244C26.7714 15.7813 26.0872 16.2414 24.6825 16.9317C22.8479 17.8338 21.9216 18.1365 18.6581 18.8692C18.0405 19.0084 17.211 19.2203 16.8114 19.3354C16.4118 19.4565 16.0304 19.5533 15.9698 19.5594C15.8184 19.5654 15.6126 19.0024 15.5097 18.2819C15.3341 17.0951 15.8366 16.3746 17.1323 15.9447C17.3987 15.8539 18.21 15.6723 18.9427 15.5391C22.1516 14.9518 22.969 14.6369 23.8712 13.6803C24.6946 12.7963 24.8884 11.6944 24.4161 10.5742C24.3192 10.3442 24.2466 10.1504 24.2587 10.1504C24.2647 10.1504 24.5977 10.2594 24.9913 10.3987ZM30.1136 14.6733C30.3376 14.8549 30.6948 15.1879 30.9067 15.4119C32.3841 16.9801 32.5052 18.3848 31.2821 19.7047C30.4587 20.5947 29.3083 21.2971 27.2558 22.175C25.5181 22.9137 24.6522 23.3617 23.5927 24.0641C23.1325 24.3729 22.636 24.6756 22.4907 24.7422C22.3515 24.8028 22.0972 24.9783 21.9337 25.1358L21.6309 25.4143L21.3827 25.166C21.2434 25.0268 20.977 24.8391 20.7833 24.7483C20.4927 24.6151 20.3655 24.5908 19.869 24.5908C19.1849 24.5908 18.8821 24.7059 18.428 25.1297L18.1313 25.4082L17.871 25.1539C17.7257 25.0207 17.4532 24.833 17.2716 24.7483C16.9809 24.6151 16.8538 24.5908 16.3573 24.5908C15.8972 24.5908 15.7276 24.6211 15.4975 24.724C15.1827 24.8694 14.6257 25.3537 14.5712 25.5354C14.5106 25.7231 14.4198 25.6141 14.111 24.9602C13.7417 24.1791 13.6145 23.6887 13.6085 23.0469C13.6024 22.5807 13.6206 22.4899 13.8022 22.1266C14.3593 20.9883 15.7216 20.3707 19.5058 19.5352C21.0436 19.1961 22.1335 18.8994 22.9569 18.5967C26.1054 17.4221 28.3517 15.8842 29.0843 14.4069L29.272 14.0254L29.4899 14.1889C29.611 14.2737 29.8895 14.4977 30.1136 14.6733ZM33.5224 19.0326C35.6294 19.5533 37.2399 21.1881 37.4034 22.9682C37.4882 23.8824 37.1431 24.7483 36.4225 25.4506C36.1743 25.6928 35.9503 25.8926 35.9261 25.8926C35.9018 25.8865 35.7868 25.7352 35.6718 25.5475C35.4175 25.1479 35.0542 24.8512 34.594 24.6756C34.3155 24.5727 34.1581 24.5545 33.7645 24.5727C33.1712 24.6029 32.82 24.7483 32.4143 25.1297L32.1237 25.4022L31.8936 25.1721C31.7665 25.0449 31.5122 24.8633 31.3245 24.7664C31.0157 24.609 30.9188 24.5908 30.4042 24.5908C29.8714 24.5908 29.7927 24.609 29.4233 24.7906C29.2054 24.8996 28.9329 25.0873 28.83 25.2024L28.6362 25.4264L28.388 25.1781C28.2487 25.0449 27.9823 24.8572 27.8007 24.7604C27.504 24.609 27.4011 24.5908 26.8925 24.5908C26.396 24.5908 26.2688 24.6151 25.9782 24.7483C25.7845 24.8391 25.5181 25.0268 25.3788 25.166L25.1306 25.4143L24.8339 25.1418C24.6704 24.9904 24.4645 24.833 24.3798 24.7906C24.295 24.7543 24.2284 24.6998 24.2284 24.6756C24.2284 24.5303 26.0206 23.5918 27.3466 23.0469C29.3931 22.2053 30.8159 21.3697 31.7059 20.4737C32.16 20.0196 32.6323 19.3475 32.7352 19.0084C32.7776 18.8571 32.8261 18.8631 33.5224 19.0326ZM16.9567 25.5233C17.2595 25.6807 17.5501 26.0197 17.6227 26.2983C17.653 26.4254 17.7681 27.043 17.871 27.6787C17.9739 28.3084 18.4099 30.7787 18.8397 33.1582C19.2696 35.5377 19.6874 37.8627 19.7661 38.3289L19.9175 39.1705L19.6268 39.1342C18.9306 39.0494 18.2888 38.559 18.095 37.9656C17.877 37.2936 15.0858 26.6918 15.0858 26.5404C15.0858 26.1832 15.4612 25.6625 15.8427 25.493C16.1212 25.3719 16.6843 25.3901 16.9567 25.5233ZM20.4684 25.5293C20.7772 25.6807 21.0497 26.0197 21.1345 26.3406C21.1647 26.4738 21.2253 26.9401 21.2616 27.376C21.2979 27.8059 21.528 30.4397 21.7763 33.2188C22.0245 35.9979 22.2425 38.4742 22.2667 38.7164L22.303 39.1584L21.528 39.1403L20.753 39.1221L20.6138 38.3047C20.535 37.8567 20.1597 35.7436 19.7722 33.6123C18.5975 27.1156 18.5431 26.7887 18.6036 26.4557C18.7186 25.826 19.2272 25.4082 19.8811 25.4082C20.1173 25.4082 20.3171 25.4506 20.4684 25.5293ZM24.1194 25.6262C24.2647 25.7231 24.4464 25.9289 24.5311 26.0742L24.6825 26.3467L24.7007 32.7526L24.7128 39.1524H23.9317H23.1507L23.1143 38.7406C22.6845 34.1572 22.0972 27.4123 22.0911 26.9522C22.079 26.4375 22.0972 26.3104 22.2122 26.1045C22.4847 25.5959 22.8479 25.3961 23.4534 25.4264C23.7925 25.4385 23.9015 25.4748 24.1194 25.6262ZM27.6251 25.6201C27.7643 25.7231 27.946 25.9229 28.0308 26.0742C28.17 26.3285 28.1761 26.3891 28.1397 27.043C28.1216 27.4244 27.9036 30.0158 27.6554 32.7949C27.4011 35.574 27.1831 38.0383 27.1649 38.2744C27.1468 38.5045 27.1165 38.8012 27.0983 38.9223L27.062 39.1524H26.3112H25.5604V32.8373C25.5604 28.9321 25.5847 26.4496 25.621 26.3164C25.6997 26.0379 25.9964 25.6807 26.2749 25.5293C26.4505 25.4324 26.5897 25.4082 26.9349 25.4264C27.3042 25.4385 27.4071 25.4688 27.6251 25.6201ZM31.0884 25.5899C31.3427 25.7654 31.597 26.1408 31.6515 26.4254C31.6999 26.6858 31.6575 26.934 30.6464 32.5528C30.1862 35.1018 29.7321 37.6266 29.6413 38.1654L29.4718 39.1524H28.6968H27.9157L27.952 38.8012C27.9702 38.6135 28.2003 36.0342 28.4667 33.0674C29.0419 26.6252 29.054 26.4738 29.1933 26.1651C29.3083 25.9047 29.5384 25.6625 29.829 25.5051C30.1136 25.3537 30.8038 25.3961 31.0884 25.5899ZM34.4487 25.5233C34.8423 25.7231 35.1874 26.2074 35.1874 26.5465C35.1874 26.601 34.4911 29.2408 33.6434 32.4014C32.5294 36.5488 32.0571 38.2139 31.9481 38.3713C31.8694 38.4985 31.7059 38.668 31.5909 38.7588C31.2034 39.0494 30.3436 39.2735 30.3436 39.0737C30.3436 38.9768 30.8159 36.3006 31.494 32.583C31.9542 30.0522 32.3901 27.6182 32.5899 26.4678C32.6989 25.8321 33.2075 25.4082 33.8675 25.4082C34.0975 25.4082 34.3034 25.4506 34.4487 25.5233Z" fill="#BF4980" stroke="#BF4980" stroke-width="2" mask="url(#path-1-inside-1_362_310)"/>
</g>
<defs>
<clipPath id="clip0_362_310">
<rect width="31" height="31" fill="white" transform="translate(10 9)"/>
</clipPath>
</defs>
</svg>
