<svg width="50" height="50" viewBox="0 0 50 50" fill="none" xmlns="http://www.w3.org/2000/svg">
<path d="M23.834 13.0128C21.4296 13.1921 19.603 13.5508 17.7034 14.2017C12.9942 15.8157 9.63993 18.891 8.43772 22.7035C8.09898 23.7729 8.04584 24.1581 8.01263 25.6924C7.98606 26.981 7.9927 27.2467 8.1189 27.9374C8.85617 32.0555 11.9646 35.4562 16.7602 37.4024C19.1115 38.3522 21.5823 38.8503 24.3654 38.9234C27.8923 39.023 31.1668 38.392 34.096 37.0503C38.4399 35.0577 41.2694 31.7101 41.9004 27.8179C42.0332 27.0208 42.0332 24.9618 41.9004 24.1648C41.183 19.7212 37.6096 16.0216 32.2893 14.2017C30.7351 13.6703 29.0414 13.2984 27.2879 13.1058C26.5838 13.0327 24.3853 12.9729 23.834 13.0128ZM27.2546 14.6002C30.1506 14.9057 33.0598 15.8556 35.1919 17.1906C38.6657 19.3626 40.5255 22.3515 40.5587 25.8053L40.5653 26.722L40.2996 26.9943C39.9542 27.3529 39.8347 27.4061 38.9845 27.612C37.9417 27.8644 37.4834 28.1035 36.8856 28.7079C36.6067 28.9869 36.2812 29.3921 36.155 29.6046C35.7233 30.3352 35.4908 30.4016 33.3985 30.3817C31.5454 30.3684 31.3063 30.4216 29.8915 31.1655C28.3904 31.9426 27.9919 31.9825 26.7764 31.4644C25.3617 30.8599 24.8569 30.8267 23.6679 31.2452C22.0207 31.8297 21.7019 31.9227 21.2104 31.9492C20.2672 32.0157 19.3307 31.6504 17.5772 30.5478C16.0429 29.5847 16.1093 29.6112 15.3322 29.6179C14.9669 29.6179 14.3824 29.6445 14.0303 29.671C13.4458 29.7242 13.3595 29.7175 13.0938 29.5913C12.6621 29.3788 12.0908 28.8408 11.5528 28.1234C10.9949 27.3862 10.7159 27.1205 10.2444 26.8814C9.83255 26.6755 9.71964 26.443 9.67314 25.7256C9.61336 24.7958 10.0451 22.471 10.4237 21.7205C12.2968 17.9943 17.0857 15.2113 22.6716 14.6002C23.741 14.4807 26.1654 14.4807 27.2546 14.6002ZM10.7027 29.4386C11.4067 30.3485 12.2901 30.9729 13.1137 31.1456C13.5654 31.2452 13.6783 31.2385 14.4753 31.1323C14.9536 31.0725 15.4185 31.0393 15.5115 31.0592C15.5979 31.0858 16.1026 31.378 16.634 31.7101C17.8296 32.474 18.7462 32.9456 19.5167 33.2046C20.0746 33.3839 20.1809 33.3972 21.0775 33.3906C22.1336 33.3839 22.0473 33.4039 24.1262 32.6666C24.9565 32.3677 25.0428 32.3743 26.0724 32.7928C27.0421 33.178 27.507 33.2976 28.0849 33.2976C28.789 33.2976 29.234 33.1581 30.476 32.5337C31.1004 32.2216 31.758 31.936 31.9373 31.8961C32.1498 31.8496 32.6148 31.843 33.2325 31.8695C33.817 31.8961 34.4679 31.8828 34.893 31.8363C36.2945 31.6902 36.6996 31.4644 37.3306 30.5079C37.9816 29.5183 38.2937 29.2991 39.476 29.0201L40.1402 28.8673L40.1004 29.0068C39.9875 29.3655 39.5292 30.3552 39.2834 30.7736C37.2509 34.1876 33.0133 36.592 27.7794 37.2961C26.4775 37.4688 23.8871 37.502 22.7381 37.3625C16.8532 36.6385 12.33 34.0083 10.4237 30.1957C10.1447 29.6378 9.71964 28.5219 9.71964 28.3625C9.72628 28.2563 10.1779 28.7544 10.7027 29.4386Z" fill="#BF4980"/>
<path d="M21.8281 15.0984C21.6289 15.1781 21.4097 15.55 21.4097 15.8091C21.4097 16.0349 21.6621 16.3936 21.868 16.46C22.1403 16.5463 24.2525 16.8917 24.5115 16.8917C25.2156 16.8917 25.5277 15.9618 24.9499 15.5832C24.8038 15.4903 22.4193 15.0319 22.1071 15.0386C22.034 15.0386 21.9078 15.0652 21.8281 15.0984Z" fill="#BF4980"/>
<path d="M29.679 16.201C29.0613 16.4002 28.4835 16.6128 28.4037 16.6659C28.0185 16.9117 27.9654 17.4563 28.2908 17.7818C28.5964 18.0807 28.7691 18.0674 30.1307 17.6223C31.2731 17.2504 31.3927 17.1973 31.5056 17.0046C31.665 16.7456 31.6716 16.4866 31.5322 16.2209C31.4392 16.0349 31.0938 15.8224 30.8945 15.8356C30.848 15.8356 30.3034 16.0017 29.679 16.201Z" fill="#BF4980"/>
<path d="M17.73 16.3006C17.3116 16.4135 17.0858 16.8519 17.2452 17.2371C17.378 17.5559 18.3876 18.984 18.5935 19.1434C19.0186 19.4755 19.6562 19.1965 19.7293 18.6452C19.7625 18.3928 19.7293 18.3264 19.1847 17.5161C18.8658 17.0445 18.5404 16.5928 18.4607 16.5065C18.2813 16.3205 17.9758 16.2341 17.73 16.3006Z" fill="#BF4980"/>
<path d="M23.8801 18.4991C20.4661 18.9242 18.2476 21.136 18.9517 23.4076C19.4233 24.9353 21.0506 26.1176 23.3222 26.5692C24.1192 26.7286 25.8727 26.7286 26.6698 26.5692C31.286 25.646 32.7074 21.7936 29.2535 19.5552C27.9052 18.6851 25.7532 18.26 23.8801 18.4991ZM26.3908 20.0534C27.872 20.3323 29.0875 21.043 29.5192 21.8799C29.7251 22.2851 29.7251 22.863 29.5126 23.2681C29.0011 24.2578 27.4535 25.0349 25.6801 25.1877C23.8469 25.3471 21.9539 24.8356 21.0041 23.919C20.5059 23.4408 20.3266 23.0821 20.3266 22.5707C20.3266 21.4615 21.5487 20.4917 23.4683 20.0799C24.1989 19.9205 25.6336 19.9072 26.3908 20.0534Z" fill="#BF4980"/>
<path d="M14.5352 18.9308C14.3425 18.9839 12.5226 20.2791 12.3366 20.4983C12.0842 20.7972 12.1175 21.1625 12.4097 21.4548C12.6223 21.6673 12.6754 21.6873 12.9344 21.6607C13.1603 21.6341 13.4127 21.488 14.223 20.9168C14.7809 20.5183 15.2791 20.1397 15.3322 20.06C15.3853 19.9802 15.4318 19.7876 15.4318 19.6282C15.4318 19.3957 15.392 19.3028 15.2392 19.1433C15.1329 19.0371 15.0001 18.9507 14.947 18.9507C14.8872 18.9507 14.8075 18.9374 14.7544 18.9242C14.7079 18.9109 14.6082 18.9175 14.5352 18.9308Z" fill="#BF4980"/>
<path d="M34.169 19.2563C33.9299 19.429 33.8103 19.7677 33.8967 20.0666C34.0627 20.671 34.8266 22.5242 34.9793 22.6836C35.3313 23.0755 36.0952 22.8363 36.1882 22.3116C36.2479 22.0061 35.2849 19.4755 35.0391 19.2828C34.8332 19.1168 34.3882 19.1102 34.169 19.2563Z" fill="#BF4980"/>
<path d="M13.1934 24.2312C12.7151 24.4371 12.6354 25.201 13.0672 25.4799C13.2 25.5663 14.8472 26.091 15.5114 26.257C15.7705 26.3235 15.8502 26.3168 16.0494 26.2238C16.3417 26.0843 16.521 25.739 16.4679 25.4334C16.3948 25.0415 16.1557 24.9021 14.9336 24.5434C13.5255 24.1249 13.4524 24.1117 13.1934 24.2312Z" fill="#BF4980"/>
<path d="M31.9969 24.4902C31.7113 24.6164 31.5718 24.8423 31.5718 25.181C31.5718 25.6592 31.7445 25.7788 33.1924 26.257C34.5939 26.7153 34.7666 26.7286 35.0522 26.3832C35.2714 26.1308 35.2847 25.7323 35.0921 25.46C34.9725 25.2939 34.76 25.2009 33.6375 24.8356C32.9135 24.5899 32.2891 24.3972 32.2626 24.3972C32.2293 24.4039 32.1098 24.4437 31.9969 24.4902Z" fill="#BF4980"/>
<path d="M18.7062 27.0208C18.321 27.1869 18.1749 27.7116 18.414 28.0703C18.58 28.3227 20.9778 29.7773 21.2302 29.7773C21.5158 29.7773 21.7815 29.6112 21.9077 29.3389C22.0605 29.0134 21.9608 28.6548 21.6553 28.4289C21.197 28.0902 19.304 27.0009 19.118 26.9611C19.0051 26.9411 18.8258 26.9677 18.7062 27.0208Z" fill="#BF4980"/>
<path d="M27.5665 28.6416C26.9621 29.0401 26.4241 29.4386 26.3643 29.5183C26.1451 29.8371 26.2846 30.4083 26.6234 30.5611C27.002 30.7338 27.1747 30.674 28.3304 29.9168C28.9348 29.5183 29.4795 29.1264 29.5326 29.0401C29.7319 28.7279 29.6986 28.3626 29.4529 28.1102C29.2935 27.9574 29.2005 27.9176 28.9547 27.9176C28.6891 27.9176 28.5496 27.9906 27.5665 28.6416Z" fill="#BF4980"/>
</svg>
