<svg width="50" height="50" viewBox="0 0 50 50" fill="none" xmlns="http://www.w3.org/2000/svg">
<path d="M21.0516 15.5217C19.4596 15.8633 17.3198 16.8881 15.3797 18.2351C12.9821 19.9045 10.7391 22.0637 9.33402 24.0553C8.90863 24.6676 8.35433 25.7375 8.18676 26.3047C7.98051 26.9814 7.97406 27.7678 8.18031 28.1803C8.37367 28.5734 8.72816 28.9215 9.06332 29.0504C9.32113 29.1471 9.34047 29.1728 9.37914 29.45C9.50805 30.4039 10.4233 31.3514 11.3707 31.5125L11.635 31.5576L11.6157 31.867C11.577 32.5695 12.0668 33.2656 12.75 33.4654C13.2399 33.6072 14.2454 33.575 14.8963 33.3945C16.4174 32.9756 18.409 31.9443 20.2782 30.623C20.6778 30.3394 21.0258 30.1074 21.0452 30.1074C21.0645 30.1074 21.0838 30.1847 21.0838 30.2814C21.0838 30.7326 21.6123 31.4545 22.2118 31.8347C23.4686 32.6404 25.5504 33.2012 28.2381 33.4719C29.3016 33.5814 32.608 33.575 33.6844 33.4719C37.7836 33.0594 40.3553 31.983 40.7807 30.507C40.9418 29.9592 40.8194 29.4693 40.4133 29.0375L40.22 28.8377L40.452 28.5541C41.0579 27.7935 41.1545 26.6463 40.684 25.8213L40.51 25.5183L40.6776 25.1896C40.8645 24.8094 40.8903 24.2228 40.742 23.849C40.0137 21.9992 36.1272 20.7681 31.0032 20.7617C29.6368 20.7617 28.612 20.8133 27.8063 20.9164C27.6258 20.9422 27.5871 20.9164 27.4776 20.7101C27.2971 20.3621 26.8846 20.0721 26.4399 19.9818L26.0596 19.898L26.0338 19.4082C26.0209 19.015 25.9758 18.841 25.8018 18.493C25.5504 17.9709 25.0413 17.4875 24.5385 17.2812C24.2098 17.1394 24.1905 17.1201 24.1454 16.8558C24.0938 16.5014 23.7715 16.018 23.4364 15.7924C22.895 15.4185 21.9862 15.3219 21.0516 15.5217ZM22.5985 16.843C22.8176 16.9396 22.8627 17.1652 22.7274 17.5068C22.3084 18.609 19.5112 21.2129 14.9414 24.7578C12.4407 26.6978 10.7842 27.7097 9.90766 27.8258C8.79262 27.9805 9.39203 26.0469 11.1194 23.9199C11.6737 23.2303 13.0014 21.8832 13.8329 21.1549C16.2176 19.0666 18.8409 17.4875 20.8776 16.9267C21.4963 16.7592 22.3213 16.714 22.5985 16.843ZM24.2549 18.6412C24.6352 18.9119 24.8221 19.4469 24.6932 19.9303C24.6352 20.1494 24.5063 20.3234 24.1067 20.7166C23.5202 21.2967 23.3397 21.5416 22.9207 22.3601C22.3729 23.4236 21.6768 23.9715 20.4522 24.3066C19.595 24.5387 19.2147 24.7127 18.5895 25.1832C17.9772 25.6408 17.5518 26.1564 17.1522 26.9492C16.7719 27.684 16.3981 28.1351 15.8502 28.5025C15.4377 28.7861 15.1864 28.8892 14.4194 29.0826C13.8651 29.2244 13.3172 29.4758 12.8467 29.8109C12.3891 30.1332 12.1571 30.2363 11.867 30.2363C11.2805 30.2363 10.7069 29.7271 10.7069 29.2051C10.7069 29.0504 10.7391 28.9924 10.8422 28.9666C11.1 28.8957 12.0926 28.3865 12.692 28.0191C14.3678 26.9814 19.234 23.1271 21.5608 20.9937C22.302 20.3105 23.1786 19.3437 23.5459 18.8088C23.8231 18.4027 23.8875 18.3898 24.2549 18.6412ZM26.2079 21.4385C26.5946 21.8187 26.2852 22.618 25.1508 24.1777C23.4686 26.4851 20.4264 29.1342 17.6034 30.7519C16.0823 31.6156 14.5225 32.2279 13.6911 32.2859C13.2657 32.3117 13.2205 32.3053 13.0659 32.1506C12.9305 32.0152 12.9112 31.9572 12.9563 31.8025C13.0659 31.4351 13.227 31.2031 13.5621 30.9517C14.0327 30.6037 14.2067 30.5199 15.0252 30.3008C16.0565 30.0236 16.5914 29.7142 17.3327 28.9988C17.7645 28.5799 17.945 28.3156 18.351 27.5293C18.8989 26.4658 19.5756 25.9308 20.8131 25.5957C21.6961 25.3572 22.1409 25.1381 22.7661 24.6418C23.3848 24.1519 23.6426 23.8297 24.1131 22.9467C24.8414 21.5931 25.7309 20.9551 26.2079 21.4385ZM33.5684 22.2183C36.1723 22.4762 38.2413 23.0949 39.1178 23.8877C39.6528 24.3711 39.6334 24.6289 39.0534 24.9125C38.628 25.1187 37.803 25.3056 36.675 25.441C35.1539 25.6279 25.9178 25.6472 25.9178 25.4668C25.9178 25.4346 26.1305 25.1123 26.3883 24.7449C26.9297 23.965 27.3036 23.2818 27.5034 22.6953L27.6387 22.2764L28.0834 22.2248C29.6754 22.0508 31.8733 22.0443 33.5684 22.2183ZM39.5561 26.5367C39.7559 27.0201 39.5948 27.6195 39.1758 27.9418C38.9438 28.1222 38.5313 28.2318 38.0995 28.2383C37.6547 28.2447 37.0424 28.4058 36.3141 28.7281C35.1346 29.2373 34.2838 29.2373 33.1043 28.7217C32.1375 28.3027 31.725 28.2189 30.7518 28.2576C29.8817 28.2898 29.6045 28.3543 28.6571 28.7797C27.6452 29.2244 26.717 29.218 25.66 28.7539C25.009 28.4703 24.1711 28.2383 23.7586 28.2383C23.6168 28.2383 23.4686 28.2125 23.4299 28.1867C23.3848 28.1609 23.6426 27.8709 24.0938 27.439L24.8221 26.743L25.7116 26.8267C26.9233 26.9492 34.909 26.9556 36.1659 26.8332C37.4163 26.7172 38.2799 26.5818 38.8536 26.4078C39.1307 26.3305 39.3821 26.2789 39.4143 26.2918C39.4401 26.3047 39.5045 26.4142 39.5561 26.5367ZM24.7577 29.8303C25.9629 30.333 26.1498 30.3846 27.0135 30.4168C27.9674 30.449 28.3993 30.3652 29.25 29.9849C29.5594 29.8496 29.9204 29.7078 30.0428 29.6691C30.7389 29.4629 31.6541 29.5338 32.3502 29.856C33.3493 30.3137 33.8004 30.4232 34.7157 30.4297C35.5407 30.4297 36.0434 30.3137 36.9329 29.914C37.7514 29.5467 38.6473 29.4435 39.0985 29.6691C39.3112 29.7787 39.5174 29.9914 39.5174 30.1074C39.5174 30.3137 39.034 30.7004 38.3895 31.0162C35.7082 32.3181 29.7786 32.6404 25.602 31.7123C23.7006 31.2869 22.1795 30.4619 22.4309 29.9849C22.7016 29.4822 23.7586 29.4113 24.7577 29.8303Z" fill="#BF4980"/>
</svg>
